<svg width="120" height="32" viewBox="0 0 120 32" fill="none" xmlns="http://www.w3.org/2000/svg">
  <g opacity="0.6">
    <!-- Google G -->
    <path d="M16 8.5C16 6.01 13.99 4 11.5 4C9.01 4 7 6.01 7 8.5C7 10.73 8.48 12.59 10.46 12.95C10.31 12.48 10.22 11.99 10.22 11.5C10.22 9.3 11.58 7.42 13.47 6.63C14.74 6.92 15.78 7.64 16 8.5Z" fill="#4285F4"/>
    <path d="M16 8.5C16 9.36 15.78 10.08 15.51 10.81C14.72 12.7 12.86 14.06 10.66 14.06C10.17 14.06 9.68 13.97 9.23 13.82C9.58 15.8 11.38 17.28 13.5 17.28C15.99 17.28 18 15.27 18 12.78C18 10.58 16.93 8.94 16 8.5Z" fill="#34A853"/>
    <path d="M10.22 11.5C10.22 11.99 10.31 12.48 10.46 12.95C9.97 13.1 9.48 13.19 8.99 13.19C6.5 13.19 4.5 11.18 4.5 8.69C4.5 6.2 6.51 4.19 9 4.19C9.49 4.19 9.98 4.28 10.47 4.43C8.58 5.22 7.22 7.1 7.22 9.3C7.22 9.79 7.31 10.28 7.46 10.75C8.21 10.99 9.01 11.11 9.84 11.11C10.33 11.11 10.81 11.06 11.26 10.91C10.71 10.46 10.22 9.99 10.22 11.5Z" fill="#FBBC04"/>
    <path d="M10.47 4.43C10.96 4.28 11.45 4.19 11.94 4.19C11.45 4.19 10.96 4.28 10.47 4.43Z" fill="#EA4335"/>
    
    <!-- Lock icon -->
    <path d="M26 14v-2a2 2 0 00-4 0v2a1 1 0 00-1 1v4a1 1 0 001 1h4a1 1 0 001-1v-4a1 1 0 00-1-1zm-2-2a1 1 0 011 1v1h-2v-1a1 1 0 011-1z" fill="#5F6368"/>
    
    <!-- Text -->
    <text x="32" y="20" font-family="Arial, sans-serif" font-size="14" fill="#5F6368">Google Secure</text>
  </g>
</svg>