<svg xmlns="http://www.w3.org/2000/svg" viewBox="0 0 64 64" fill="none">
  <defs>
    <linearGradient id="g1" x1="0" y1="0" x2="64" y2="64" gradientUnits="userSpaceOnUse">
      <stop offset="0" stop-color="#F59E0B"/>
      <stop offset="1" stop-color="#EF4444"/>
    </linearGradient>
  </defs>
  <circle cx="32" cy="32" r="30" fill="#fff"/>
  <path d="M18 38c0-8 8-14 14-14 6 0 10 3 12 7 3 6 8 6 8 6-4 3-8 3-12 1-1 3-4 6-9 6-7 0-13-3-13-6z" fill="url(#g1)"/>
  <path d="M28 24c2-3 6-5 10-5-1 2-1 4 0 6-3-1-6-1-10-1z" fill="#F97316"/>
  <circle cx="34" cy="30" r="2" fill="#111827"/>
  <path d="M24 40c1 2 3 3 6 3 3 0 5-1 6-3" stroke="#B91C1C" stroke-width="2" stroke-linecap="round"/>
</svg>
