<svg xmlns="http://www.w3.org/2000/svg" viewBox="0 0 64 32" fill="none">
  <defs>
    <linearGradient id="g" x1="0" y1="0" x2="64" y2="0" gradientUnits="userSpaceOnUse">
      <stop stop-color="#2563eb"/>
      <stop offset="1" stop-color="#9333ea"/>
    </linearGradient>
  </defs>
  <path d="M7 22c0-4 3-7 7-7h16c4 0 7 3 7 7h8c2 0 4 2 4 4v2H3v-2c0-2 2-4 4-4h0z" fill="url(#g)"/>
  <path d="M16 8h18c4 0 7 3 8 7l2 7H6l3-9c1-3 4-5 7-5z" fill="#e5e7eb"/>
  <circle cx="16" cy="26" r="4" fill="#111827"/>
  <circle cx="42" cy="26" r="4" fill="#111827"/>
  <circle cx="16" cy="26" r="2" fill="#9ca3af"/>
  <circle cx="42" cy="26" r="2" fill="#9ca3af"/>
  <rect x="20" y="10" width="10" height="6" rx="1" fill="#93c5fd"/>
  <rect x="32" y="10" width="8" height="6" rx="1" fill="#93c5fd"/>
</svg>
