<?xml version="1.0" encoding="UTF-8"?>
<svg width="128" height="32" viewBox="0 0 128 32" fill="none" xmlns="http://www.w3.org/2000/svg">
  <defs>
    <linearGradient id="g" x1="0" y1="0" x2="128" y2="0" gradientUnits="userSpaceOnUse">
      <stop offset="0" stop-color="#111"/>
      <stop offset="1" stop-color="#c1121f"/>
    </linearGradient>
  </defs>
  <!-- stylized fast car silhouette (red/black) -->
  <path d="M12 22c-3 0-6-1-8-2 2-2 6-4 10-5 10-3 38-6 60-4 8 1 16 3 22 6 4 2 8 4 10 6-2 1-5 2-10 2H12z" fill="url(#g)"/>
  <!-- wheels -->
  <circle cx="36" cy="22" r="3" fill="#111"/>
  <circle cx="88" cy="22" r="3" fill="#111"/>
  <!-- motion lines -->
  <rect x="2" y="18" width="10" height="1.5" fill="#c1121f" opacity=".9"/>
  <rect x="2" y="21" width="7" height="1.5" fill="#c1121f" opacity=".7"/>
  <rect x="2" y="24" width="5" height="1.5" fill="#c1121f" opacity=".5"/>
</svg>

